<!-- triangle-exclamation icon by Free Icons (https://free-icons.github.io/free-icons/) -->
<svg xmlns="http://www.w3.org/2000/svg" height="1em" fill="currentColor" viewBox="0 0 512 512">
  <path
    d="M 18 448 L 0 480 L 18 448 L 0 480 L 37 480 L 512 480 L 494 448 L 494 448 L 274 64 L 274 64 L 256 32 L 256 32 L 238 64 L 238 64 L 18 448 L 18 448 Z M 457 448 L 55 448 L 457 448 L 55 448 L 256 97 L 256 97 L 457 448 L 457 448 Z M 240 320 L 240 336 L 240 320 L 240 336 L 272 336 L 272 336 L 272 320 L 272 320 L 272 192 L 272 192 L 240 192 L 240 192 L 240 320 L 240 320 Z M 280 416 L 280 368 L 280 416 L 280 368 L 232 368 L 232 368 L 232 416 L 232 416 L 280 416 L 280 416 Z"
  />
</svg>